HIERARCHY
ROOT RootJoint
{
    OFFSET   0.000000   0.000000   0.000000
    CHANNELS 6 Xposition Yposition Zposition Xrotation Yrotation Zrotation
    JOINT pelvis_lowerback
    {
        OFFSET   0.000000   0.093605   0.000000
        CHANNELS 3 Xrotation Yrotation Zrotation
        JOINT lowerback_torso
        {
            OFFSET   0.000000   0.100000   0.000000
            CHANNELS 3 Xrotation Yrotation Zrotation
            JOINT torso_head
            {
                OFFSET   0.000000   0.282350   0.000000
                CHANNELS 3 Xrotation Yrotation Zrotation
                End Site
                {
                    OFFSET   0.000000   0.192650   0.000000
                }
            }
            JOINT rTorso_Clavicle
            {
                OFFSET  -0.001000   0.157500   0.000000
                CHANNELS 3 Xrotation Yrotation Zrotation
                JOINT rShoulder
                {
                    OFFSET  -0.117647   0.000000   0.000000
                    CHANNELS 3 Xrotation Yrotation Zrotation
                    JOINT rElbow
                    {
                        OFFSET  -0.245000   0.000000   0.000000
                        CHANNELS 3 Xrotation Yrotation Zrotation
                        JOINT rWrist
                        {
                            OFFSET  -0.240000   0.000000   0.000000
                            CHANNELS 3 Xrotation Yrotation Zrotation
                            End Site
                            {
                                OFFSET  -0.116353  -0.002500   0.000000
                            }
                        }
                    }
                }
            }
            JOINT lTorso_Clavicle
            {
                OFFSET   0.001000   0.157500   0.000000
                CHANNELS 3 Xrotation Yrotation Zrotation
                JOINT lShoulder
                {
                    OFFSET   0.117647   0.000000   0.000000
                    CHANNELS 3 Xrotation Yrotation Zrotation
                    JOINT lElbow
                    {
                        OFFSET   0.245000   0.000000   0.000000
                        CHANNELS 3 Xrotation Yrotation Zrotation
                        JOINT lWrist
                        {
                            OFFSET   0.240000   0.000000   0.000000
                            CHANNELS 3 Xrotation Yrotation Zrotation
                            End Site
                            {
                                OFFSET   0.116353  -0.002500   0.000000
                            }
                        }
                    }
                }
            }
        }
    }
    JOINT rHip
    {
        OFFSET  -0.100000  -0.051395   0.000000
        CHANNELS 3 Xrotation Yrotation Zrotation
        JOINT rKnee
        {
            OFFSET   0.000000  -0.410000   0.000000
            CHANNELS 3 Xrotation Yrotation Zrotation
            JOINT rAnkle
            {
                OFFSET   0.000000  -0.390000   0.000000
                CHANNELS 3 Xrotation Yrotation Zrotation
                JOINT rToeJoint
                {
                    OFFSET   0.000000  -0.050000   0.130000
                    CHANNELS 3 Xrotation Yrotation Zrotation
                    End Site
                    {
                        OFFSET  -0.010000   0.002000   0.060000
                    }
                }
            }
        }
    }
    JOINT lHip
    {
        OFFSET   0.100000  -0.051395   0.000000
        CHANNELS 3 Xrotation Yrotation Zrotation
        JOINT lKnee
        {
            OFFSET   0.000000  -0.410000   0.000000
            CHANNELS 3 Xrotation Yrotation Zrotation
            JOINT lAnkle
            {
                OFFSET   0.000000  -0.390000   0.000000
                CHANNELS 3 Xrotation Yrotation Zrotation
                JOINT lToeJoint
                {
                    OFFSET   0.000000  -0.050000   0.130000
                    CHANNELS 3 Xrotation Yrotation Zrotation
                    End Site
                    {
                        OFFSET   0.010000   0.002000   0.060000
                    }
                }
            }
        }
    }
}
MOTION
Frames: 5
Frame Time:   0.008333
 -2.361634   0.895715   4.895223   1.577327  -4.098967   1.217405   1.408102   4.935726   0.577403  -1.263720   0.225806   1.485718  -3.329722   0.443416   2.559933   2.176409   0.962246   5.081445   7.896060  20.184799  48.372422  -0.001342  20.977502  -0.000372  10.618228   2.385406   2.899657   1.945234   2.747300  -6.782359  15.164112 -15.259783 -53.207079   0.000544 -12.459160  -0.001029   9.773997  -2.594154  -6.215208  16.453919   1.074937  -5.649333  14.211640   0.006533   0.001429  -0.062681   4.189714   2.210413 -45.206628   0.002178   0.000137 -21.227464  -2.473519   1.126955  13.170573   0.004206  -0.003994   0.287526   6.441789   0.131240  -0.287605  -0.000023  -0.000641
 -2.358963   0.896911   4.903581   1.693901  -4.095717   1.391634   1.303651   4.962606   0.347277  -1.285209   0.213248   1.497506  -3.330957   0.472263   2.630855   2.195901   0.941710   5.210760   8.021179  20.120815  48.492121  -0.001600  20.727041  -0.000256  10.675082   2.406686   2.968698   1.893913   2.594685  -6.764578  15.027173 -15.392741 -53.103746   0.000481 -12.419812  -0.000862   9.769007  -2.632948  -6.232508  15.980134   1.217562  -6.043930  15.693347   0.008797   0.002074   0.797378   4.319705   2.508352 -44.835278   0.001046   0.000017 -20.904617  -2.631805   0.674254  13.285404   0.003619  -0.003491   0.577651   6.403051   0.440100  -0.212191  -0.000116  -0.000735
 -2.356437   0.898167   4.912018   1.774282  -3.993627   1.523354   1.190884   4.948195   0.136720  -1.299284   0.170245   1.525936  -3.326494   0.499829   2.699788   2.232192   0.904070   5.326676   8.151867  20.052107  48.612299  -0.001734  20.488343  -0.000156  10.730936   2.407790   3.068285   1.833635   2.441758  -6.710016  14.893129 -15.520454 -52.986703   0.000435 -12.389038  -0.000707   9.760955  -2.701165  -6.237018  15.499462   1.354889  -6.359454  17.269860   0.010996   0.003477   1.692224   4.459098   2.797671 -43.970465  -0.001025   0.000168 -20.502274  -2.808706   0.250672  13.313258   0.002959  -0.002839   0.797581   6.357918   0.747218  -0.159550  -0.000156  -0.000704
 -2.354015   0.899372   4.920518   1.844518  -3.817359   1.629595   1.060087   4.912283  -0.059314  -1.322377   0.106615   1.559449  -3.322974   0.525364   2.763234   2.280308   0.852917   5.428872   8.286187  19.979023  48.725807  -0.001752  20.261520  -0.000065  10.785232   2.391638   3.183780   1.770140   2.293521  -6.631125  14.766188 -15.639663 -52.859009   0.000400 -12.362168  -0.000568   9.901957  -2.794453  -6.208466  15.052765   1.489655  -6.620607  18.810408   0.012861   0.005245   2.588327   4.603903   3.074410 -42.623718  -0.003868   0.001053 -20.081517  -2.976317  -0.149655  13.316652   0.002377  -0.002272   0.984525   6.316133   1.037668  -0.117245  -0.000167  -0.000622
 -2.351670   0.900481   4.929041   1.915071  -3.592662   1.723119   0.915717   4.867091  -0.246526  -1.358327   0.033398   1.591454  -3.322367   0.549183   2.821263   2.332753   0.795822   5.518232   8.418901  19.905014  48.830009  -0.001683  20.047107   0.000024  10.837915   2.362506   3.301586   1.705766   2.151156  -6.538019  14.646801 -15.750813 -52.725540   0.000372 -12.338043  -0.000447   9.864915  -2.867342  -6.157266  14.641775   1.621890  -6.846968  20.280764   0.014317   0.006973   3.470157   4.751672   3.337064 -40.898488  -0.006920   0.002760 -19.665266  -3.130972  -0.533904  13.318720   0.001908  -0.001816   1.154669   6.278706   1.308871  -0.080684  -0.000164  -0.000526
